<svg width="41" height="40" viewBox="0 0 41 40" fill="none" xmlns="http://www.w3.org/2000/svg">
<path fill-rule="evenodd" clip-rule="evenodd" d="M32.4749 28.918H11.6193C11.1466 28.918 10.71 28.6629 10.4736 28.2495L9.07283 25.7977C8.83599 25.3843 8.83599 24.8747 9.07283 24.4614L19.5001 6.21612C19.7364 5.80234 20.1731 5.54774 20.6463 5.54774H23.4479C23.9206 5.54774 24.3572 5.80234 24.5936 6.21568L35.0233 24.4609C35.2597 24.8747 35.2597 25.3843 35.0233 25.7982L33.6201 28.25C33.3837 28.6634 32.9471 28.918 32.4749 28.918ZM35.5498 14.9066L38.1535 10.3496C38.3993 9.91918 38.3884 9.38639 38.1254 8.96655L33.2165 1.13236C32.9742 0.744933 32.5523 0.510254 32.0984 0.510254H18.3001C17.8274 0.510254 17.3903 0.765299 17.1539 1.17865L11.8685 10.426C11.6321 10.8393 11.195 11.0944 10.7228 11.0944H5.53161C5.0377 11.0944 4.58524 11.3717 4.35729 11.8142L0.148978 19.9849C-0.0592417 20.3904 -0.0488847 20.8754 0.178085 21.2712L7.06169 33.288C7.29852 33.7008 7.73469 33.955 8.20689 33.955H18.7926C19.2647 33.955 19.7014 34.2096 19.9383 34.6234L22.3397 38.8217C22.579 39.2401 23.0236 39.4956 23.5017 39.4897L32.6041 39.3776C33.0655 39.372 33.4908 39.1239 33.7262 38.7231L40.7676 26.735C41.0119 26.3194 41.0153 25.8032 40.776 25.3848L35.5498 16.2434C35.3135 15.8296 35.3135 15.3205 35.5498 14.9066Z" fill="url(#paint0_linear_1519_16418)"/>
<defs>
<linearGradient id="paint0_linear_1519_16418" x1="20.4766" y1="-118.2" x2="20.4766" y2="83.7848" gradientUnits="userSpaceOnUse">
<stop offset="0.671723" stop-color="#DFFEF8"/>
<stop offset="0.890625" stop-color="#B8FFF4"/>
</linearGradient>
</defs>
</svg>
