<svg width="894" height="781" viewBox="0 0 894 781" fill="none" xmlns="http://www.w3.org/2000/svg">
<g clip-path="url(#clip0_1162_15907)">
<path d="M875.761 564.102L731.652 565.293C730.451 565.293 729.251 565.293 726.849 565.293C680.013 565.293 684.817 534.338 696.826 511.718L701.63 503.384C701.63 503.384 701.63 502.193 702.831 502.193L767.679 393.852C771.282 387.899 771.282 381.946 767.679 375.993L555.119 9.29977C551.516 4.53751 546.713 0.96582 539.507 0.96582H340.157C326.947 0.96582 318.54 15.2526 325.746 27.1582L400.202 153.358C411.01 174.788 414.613 208.124 355.769 208.124C350.965 208.124 346.161 208.124 341.358 208.124L233.276 206.933C227.271 206.933 221.267 210.505 217.664 215.267L2.70204 581.961C-0.90068 587.914 -0.90068 593.866 2.70204 599.819L102.377 771.26C108.382 783.166 126.395 783.166 132.4 771.26L196.048 660.538C210.459 637.917 244.084 604.582 270.504 649.823C271.705 652.204 272.906 653.395 274.107 655.776L332.951 760.545C336.554 766.498 341.358 768.879 348.563 768.879L776.086 770.07C782.09 770.07 788.095 766.498 791.698 761.736L891.373 590.295C898.579 578.389 890.172 564.102 875.761 564.102ZM604.356 497.431C618.767 518.861 627.174 560.531 555.119 566.484L436.229 567.674C431.426 567.674 426.622 567.674 420.617 567.674C260.897 566.484 266.902 545.053 316.139 449.808L389.394 321.227C390.595 320.037 390.595 318.846 391.796 317.656L401.403 302.178C423.019 266.462 451.841 243.841 490.27 305.75L604.356 497.431Z" fill="url(#paint0_linear_1162_15907)" style="mix-blend-mode:color-dodge"/>
</g>
<defs>
<linearGradient id="paint0_linear_1162_15907" x1="447" y1="0.96582" x2="447" y2="780.19" gradientUnits="userSpaceOnUse">
<stop stop-color="#203457"/>
<stop offset="1" stop-color="#222837" stop-opacity="0.15"/>
</linearGradient>
<clipPath id="clip0_1162_15907">
<rect width="894" height="779.224" fill="white" transform="translate(0 0.96582)"/>
</clipPath>
</defs>
</svg>
