<svg width="1188" height="1130" viewBox="0 0 1188 1130" fill="none" xmlns="http://www.w3.org/2000/svg">
<path fill-rule="evenodd" clip-rule="evenodd" d="M941.322 823.497H336.8C323.099 823.497 310.441 816.104 303.59 804.122L262.987 733.053C256.122 721.071 256.122 706.299 262.987 694.317L565.234 165.457C572.084 153.463 584.742 146.084 598.457 146.084H679.665C693.366 146.084 706.024 153.463 712.874 165.444L1015.19 694.304C1022.04 706.299 1022.04 721.071 1015.19 733.066L974.518 804.136C967.667 816.117 955.009 823.497 941.322 823.497ZM1030.45 417.362L1105.93 285.272C1113.05 272.795 1112.73 257.351 1105.11 245.182L962.819 18.0985C955.796 6.86836 943.568 0.065918 930.41 0.065918H530.451C516.749 0.065918 504.078 7.4587 497.227 19.4402L344.022 287.486C337.172 299.467 324.5 306.859 310.813 306.859H160.34C146.024 306.859 132.909 314.897 126.301 327.723L4.31831 564.561C-1.71719 576.315 -1.41698 590.375 5.162 601.847L204.691 950.167C211.556 962.135 224.199 969.502 237.886 969.502H544.724C558.412 969.502 571.069 976.88 577.934 988.875L647.542 1110.57C654.479 1122.7 667.365 1130.1 681.224 1129.93L945.07 1126.68C958.442 1126.52 970.771 1119.33 977.593 1107.71L1181.7 760.221C1188.78 748.173 1188.88 733.213 1181.94 721.084L1030.45 456.111C1023.6 444.116 1023.6 429.357 1030.45 417.362Z" fill="url(#paint0_radial_1239_15623)" fill-opacity="0.7"/>
<defs>
<radialGradient id="paint0_radial_1239_15623" cx="0" cy="0" r="1" gradientUnits="userSpaceOnUse" gradientTransform="translate(593.538 1082.46) rotate(90) scale(921.513 968.171)">
<stop stop-color="#102244" stop-opacity="0.4"/>
<stop offset="1" stop-color="#001D4F" stop-opacity="0.24"/>
</radialGradient>
</defs>
</svg>
