<?xml version="1.0" encoding="utf-8"?>
<!-- Generator: Adobe Illustrator 26.2.1, SVG Export Plug-In . SVG Version: 6.00 Build 0)  -->
<svg version="1.1" id="Layer_1" xmlns="http://www.w3.org/2000/svg" xmlns:xlink="http://www.w3.org/1999/xlink" x="0px" y="0px"
	 viewBox="0 0 1000 500" style="enable-background:new 0 0 1000 500;" xml:space="preserve">
<style type="text/css">
	.st0{fill:#49004B;}
	.st1{fill:#F2EAE9;}
	.st2{fill:#FFFFFF;}
	.st3{fill:#F812C6;}
	.st4{fill:#FA1A22;}
	.st5{fill:#FF9C00;}
</style>
<g>
	<polygon class="st2" points="198.9,199.1 216.7,168.1 234.6,199.1 	"/>
	<polygon class="st2" points="220.1,243.4 240,208.8 260,243.4 	"/>
	<polygon class="st2" points="161.8,263.6 196.9,202.7 232,263.6 	"/>
	<polygon class="st2" points="263,333.9 287.7,291 312.4,333.9 	"/>
	<polygon class="st2" points="239.9,291.1 263.9,249.5 287.9,291.1 	"/>
	<polygon class="st2" points="191.5,333.8 232,263.6 272.4,333.8 	"/>
	<polygon class="st2" points="121.3,333.9 168.3,252.4 215.3,333.9 	"/>
	<path class="st2" d="M844.6,216.2l15.1-11.4v25.7h18.9v12.9h-18.9v32.8c0,8.5,3.4,10.2,9.7,10.2c2.6,0,6.2-0.3,9.2-1.8V298
		c-3.6,1.8-7.8,2.1-11.7,2.1c-14.7,0-22.4-6.2-22.4-21.8v-34.9h-12.5v-12.9h12.5V216.2z M775,258.2c1-10,8-16.8,18.3-16.8
		c10.3,0,17.3,6.7,18.3,16.8H775z M794.8,300.5c12.8,0,25.1-5.1,31.2-15.2l-10.8-9.6c-3.7,8.7-11.4,11.9-20,11.9
		c-9.3,0-18.9-4.8-20.3-17.9h52c0.1-2.3,0.3-4.5,0.3-6.5c0-19.4-12.9-34.7-33.5-34.7c-19.9,0-34.7,15.2-34.7,36.2
		C758.8,285.6,773.6,300.5,794.8,300.5 M668.6,202.4H690l40.2,76.7v-76.7h15.1v96.1h-21.4l-40.2-76.7v76.7h-15.1V202.4z
		 M603.1,258.2c1-10,8-16.8,18.3-16.8c10.3,0,17.3,6.7,18.3,16.8H603.1z M622.9,300.5c12.8,0,25.1-5.1,31.2-15.2l-10.8-9.6
		c-3.7,8.7-11.4,11.9-20,11.9c-9.3,0-18.9-4.8-20.3-17.9h52c0.1-2.3,0.3-4.5,0.3-6.5c0-19.4-12.9-34.7-33.5-34.7
		c-19.9,0-34.7,15.2-34.7,36.2C586.9,285.6,601.8,300.5,622.9,300.5 M526.9,264.4c0,13.7,8.7,22.4,21.1,22.4
		c8.4,0,15.8-5.1,17.9-13.3l13.2,8c-4.3,11-16.8,19.1-31,19.1c-21.6,0-36.7-15-36.7-36s15.1-36,36.7-36c15,0,26.8,8.1,31,19.1
		l-13.5,8.1c-2.1-8.2-9.2-13.5-17.6-13.5C535.6,242.3,526.9,250.6,526.9,264.4 M483,298.5h15.1v-68.1H483V298.5z M482.3,218.1h16.3
		v-15.6h-16.3V218.1z M452.5,298.5h15.1v-96.1h-15.1V298.5z M379.9,261.2l15.9-40.9l15.8,40.9H379.9z M348.7,298.5h17l8.9-23.6h42
		l9.1,23.6h17.2l-38.6-96.1h-16.7L348.7,298.5z"/>
</g>
</svg>
