<svg width="15" height="17" viewBox="0 0 15 17" fill="none" xmlns="http://www.w3.org/2000/svg">
<mask id="path-1-outside-1_330_1423" maskUnits="userSpaceOnUse" x="0" y="0" width="15" height="17" fill="black">
<rect fill="white" width="15" height="17"/>
<path fill-rule="evenodd" clip-rule="evenodd" d="M14.0625 4.83661V4.88794L14.0368 12.1249C14.0368 12.2019 13.9855 12.3045 13.9085 12.3559L7.64671 15.9743C7.62105 16 7.56972 16 7.51839 16C7.49273 16 7.44141 16 7.39008 15.9743L1.12831 12.3559C1.05133 12.3045 1 12.2276 1 12.1249V4.88794C1 4.81095 1.05133 4.7083 1.12831 4.65697L7.39008 1.03849C7.49273 0.987169 7.59538 0.987169 7.67237 1.03849L13.9341 4.65697C13.947 4.65697 13.9534 4.66339 13.9598 4.66981C13.9662 4.67622 13.9726 4.68264 13.9855 4.68264L14.0111 4.7083C14.0111 4.72113 14.0175 4.72755 14.024 4.73396C14.0304 4.74038 14.0368 4.74679 14.0368 4.75963V4.78529C14.0625 4.81095 14.0625 4.81095 14.0625 4.83661ZM13.2155 4.88795L7.51833 1.60309L1.74416 4.93928L7.49267 7.91618L13.2155 4.88795ZM1.53888 5.36272L7.23606 8.33962C7.23606 8.33962 7.23606 8.36529 7.26172 8.36529V15.1916L1.53888 11.8811V5.36272ZM7.82642 8.28829V15.166L13.5236 11.8811V5.26005L7.82642 8.28829Z"/>
</mask>
<path fill-rule="evenodd" clip-rule="evenodd" d="M14.0625 4.83661V4.88794L14.0368 12.1249C14.0368 12.2019 13.9855 12.3045 13.9085 12.3559L7.64671 15.9743C7.62105 16 7.56972 16 7.51839 16C7.49273 16 7.44141 16 7.39008 15.9743L1.12831 12.3559C1.05133 12.3045 1 12.2276 1 12.1249V4.88794C1 4.81095 1.05133 4.7083 1.12831 4.65697L7.39008 1.03849C7.49273 0.987169 7.59538 0.987169 7.67237 1.03849L13.9341 4.65697C13.947 4.65697 13.9534 4.66339 13.9598 4.66981C13.9662 4.67622 13.9726 4.68264 13.9855 4.68264L14.0111 4.7083C14.0111 4.72113 14.0175 4.72755 14.024 4.73396C14.0304 4.74038 14.0368 4.74679 14.0368 4.75963V4.78529C14.0625 4.81095 14.0625 4.81095 14.0625 4.83661ZM13.2155 4.88795L7.51833 1.60309L1.74416 4.93928L7.49267 7.91618L13.2155 4.88795ZM1.53888 5.36272L7.23606 8.33962C7.23606 8.33962 7.23606 8.36529 7.26172 8.36529V15.1916L1.53888 11.8811V5.36272ZM7.82642 8.28829V15.166L13.5236 11.8811V5.26005L7.82642 8.28829Z" fill="white"/>
<path d="M14.0625 4.88794L14.2625 4.88865V4.88794H14.0625ZM14.0368 12.1249L13.8368 12.1242V12.1249H14.0368ZM13.9085 12.3559L14.0087 12.5294L14.0194 12.5223L13.9085 12.3559ZM7.64671 15.9743L7.54664 15.8012L7.52388 15.8143L7.50529 15.8329L7.64671 15.9743ZM7.39008 15.9743L7.28983 16.1478L7.30064 16.1532L7.39008 15.9743ZM1.12831 12.3559L1.01715 12.5226L1.02825 12.529L1.12831 12.3559ZM1.12831 4.65697L1.02804 4.48345L1.01737 4.49056L1.12831 4.65697ZM7.39008 1.03849L7.30047 0.859283L7.29001 0.865328L7.39008 1.03849ZM7.67237 1.03849L7.56121 1.20525L7.57231 1.21166L7.67237 1.03849ZM13.9341 4.65697L13.8341 4.83014L13.8805 4.85697H13.9341V4.65697ZM13.9855 4.68264L14.1269 4.54121L14.0683 4.48264H13.9855V4.68264ZM14.0111 4.7083H14.2111V4.62546L14.1525 4.56688L14.0111 4.7083ZM14.024 4.73396L13.8825 4.87538L13.8825 4.87539L14.024 4.73396ZM14.0368 4.78529H13.8368V4.86813L13.8954 4.92671L14.0368 4.78529ZM7.51833 1.60309L7.61823 1.42983L7.51823 1.37217L7.41828 1.42992L7.51833 1.60309ZM13.2155 4.88795L13.3091 5.06473L13.6289 4.89546L13.3154 4.71469L13.2155 4.88795ZM1.74416 4.93928L1.64411 4.7661L1.32777 4.94887L1.65219 5.11688L1.74416 4.93928ZM7.49267 7.91618L7.4007 8.09378L7.49367 8.14193L7.58621 8.09296L7.49267 7.91618ZM7.23606 8.33962L7.43606 8.33963L7.43606 8.21847L7.32868 8.16236L7.23606 8.33962ZM1.53888 5.36272L1.6315 5.18546L1.33888 5.03256V5.36272H1.53888ZM7.26172 8.36529H7.46172V8.16529H7.26172V8.36529ZM7.26172 15.1916L7.16157 15.3648L7.46172 15.5384V15.1916H7.26172ZM1.53888 11.8811H1.33888V11.9965L1.43873 12.0542L1.53888 11.8811ZM7.82642 15.166H7.62642V15.5121L7.92632 15.3392L7.82642 15.166ZM7.82642 8.28829L7.73255 8.11168L7.62642 8.16809V8.28829H7.82642ZM13.5236 11.8811L13.6235 12.0544L13.7236 11.9966V11.8811H13.5236ZM13.5236 5.26005H13.7236V4.92725L13.4297 5.08345L13.5236 5.26005ZM14.2625 4.88794V4.83661H13.8625V4.88794H14.2625ZM14.2368 12.1256L14.2625 4.88865L13.8625 4.88723L13.8368 12.1242L14.2368 12.1256ZM14.0194 12.5223C14.0904 12.4749 14.1429 12.4092 14.1776 12.3448C14.2118 12.2814 14.2368 12.204 14.2368 12.1249H13.8368C13.8368 12.1226 13.8371 12.125 13.8351 12.1318C13.8333 12.1383 13.8301 12.1465 13.8254 12.1552C13.8152 12.1742 13.8035 12.1855 13.7975 12.1895L14.0194 12.5223ZM7.74678 16.1475L14.0085 12.529L13.8084 12.1827L7.54664 15.8012L7.74678 16.1475ZM7.51839 16.2C7.54036 16.2 7.58119 16.2004 7.62046 16.1948C7.65713 16.1896 7.72916 16.1747 7.78813 16.1158L7.50529 15.8329C7.52274 15.8155 7.54014 15.8069 7.55017 15.8029C7.55974 15.7992 7.56541 15.7986 7.56389 15.7988C7.56264 15.799 7.55858 15.7994 7.55004 15.7997C7.5414 15.8 7.53184 15.8 7.51839 15.8V16.2ZM7.30064 16.1532C7.39755 16.2017 7.49098 16.2 7.51839 16.2V15.8C7.50626 15.8 7.49936 15.7998 7.49215 15.7988C7.48523 15.7978 7.48138 15.7964 7.47952 15.7955L7.30064 16.1532ZM1.02825 12.529L7.29001 16.1475L7.49015 15.8012L1.22838 12.1827L1.02825 12.529ZM0.8 12.1249C0.8 12.3051 0.89429 12.4402 1.01738 12.5223L1.23925 12.1895C1.222 12.178 1.21286 12.1671 1.20804 12.1589C1.20375 12.1515 1.2 12.1415 1.2 12.1249H0.8ZM0.8 4.88794V12.1249H1.2V4.88794H0.8ZM1.01737 4.49056C0.946347 4.53792 0.893859 4.60363 0.859192 4.66801C0.82502 4.73148 0.8 4.80887 0.8 4.88794H1.2C1.2 4.89024 1.19973 4.88788 1.20166 4.88105C1.20351 4.87455 1.20668 4.86638 1.21138 4.85765C1.22162 4.83863 1.23329 4.82736 1.23926 4.82338L1.01737 4.49056ZM7.29001 0.865328L1.02825 4.48381L1.22838 4.83014L7.49015 1.21166L7.29001 0.865328ZM7.78331 0.872084C7.63152 0.77089 7.44943 0.785213 7.30064 0.859609L7.47952 1.21738C7.53603 1.18912 7.55925 1.20345 7.56143 1.2049L7.78331 0.872084ZM14.0342 4.48381L7.77244 0.865328L7.57231 1.21166L13.8341 4.83014L14.0342 4.48381ZM14.1012 4.52839C14.0927 4.51986 14.0349 4.45697 13.9341 4.45697V4.85697C13.9035 4.85697 13.8729 4.84833 13.8465 4.83248C13.826 4.8202 13.8125 4.80539 13.8184 4.81122L14.1012 4.52839ZM13.9855 4.48264C14.0161 4.48264 14.0467 4.49129 14.0731 4.50713C14.0936 4.51941 14.1071 4.53422 14.1012 4.52839L13.8184 4.81122C13.8269 4.81974 13.8847 4.88264 13.9855 4.88264V4.48264ZM14.1525 4.56688L14.1269 4.54121L13.844 4.82406L13.8697 4.84972L14.1525 4.56688ZM14.1654 4.59255C14.1595 4.58671 14.1744 4.60017 14.1866 4.62064C14.2025 4.64705 14.2111 4.6777 14.2111 4.7083H13.8111C13.8111 4.80906 13.874 4.86686 13.8825 4.87538L14.1654 4.59255ZM14.2368 4.75963C14.2368 4.65886 14.1739 4.60106 14.1654 4.59254L13.8825 4.87539C13.8884 4.88122 13.8736 4.86776 13.8613 4.84729C13.8454 4.82088 13.8368 4.79023 13.8368 4.75963H14.2368ZM14.2368 4.78529V4.75963H13.8368V4.78529H14.2368ZM14.2625 4.83661C14.2625 4.8339 14.2627 4.81765 14.2611 4.80147C14.2589 4.77981 14.2532 4.75168 14.2381 4.7215C14.2247 4.69475 14.2086 4.67599 14.2003 4.66673C14.1923 4.65789 14.1831 4.64877 14.1782 4.64387L13.8954 4.92671C13.9033 4.93464 13.9037 4.93514 13.903 4.93432C13.9019 4.93308 13.8905 4.92074 13.8804 4.9004C13.8685 4.87664 13.8644 4.85493 13.863 4.84128C13.8622 4.83312 13.8625 4.8265 13.8625 4.83661H14.2625ZM7.41843 1.77635L13.1156 5.06121L13.3154 4.71469L7.61823 1.42983L7.41843 1.77635ZM1.84422 5.11245L7.61839 1.77626L7.41828 1.42992L1.64411 4.7661L1.84422 5.11245ZM7.58464 7.73858L1.83613 4.76168L1.65219 5.11688L7.4007 8.09378L7.58464 7.73858ZM13.122 4.71117L7.39913 7.7394L7.58621 8.09296L13.3091 5.06473L13.122 4.71117ZM7.32868 8.16236L1.6315 5.18546L1.44625 5.53998L7.14343 8.51688L7.32868 8.16236ZM7.26172 8.16529C7.2903 8.16529 7.32503 8.17301 7.35782 8.19487C7.38936 8.21589 7.40789 8.2425 7.41815 8.26301C7.42802 8.28275 7.43196 8.30006 7.43374 8.31076C7.43471 8.31658 7.43527 8.32187 7.4356 8.32648C7.43577 8.32882 7.43588 8.33108 7.43595 8.33325C7.43599 8.33434 7.43601 8.33542 7.43603 8.33648C7.43604 8.33701 7.43605 8.33753 7.43605 8.33806C7.43605 8.33832 7.43605 8.33858 7.43606 8.33884C7.43606 8.33897 7.43606 8.33911 7.43606 8.33924C7.43606 8.3393 7.43606 8.3394 7.43606 8.33943C7.43606 8.33953 7.43606 8.33963 7.23606 8.33962C7.03606 8.33962 7.03606 8.33972 7.03606 8.33982C7.03606 8.33985 7.03606 8.33995 7.03606 8.34001C7.03606 8.34015 7.03606 8.34028 7.03606 8.34041C7.03606 8.34068 7.03606 8.34095 7.03606 8.34123C7.03607 8.34178 7.03607 8.34234 7.03608 8.34292C7.0361 8.34408 7.03613 8.34529 7.03617 8.34657C7.03626 8.34912 7.0364 8.35193 7.03661 8.35497C7.03704 8.36099 7.03781 8.36828 7.03918 8.37651C7.04176 8.39201 7.0473 8.41574 7.06038 8.4419C7.07384 8.46883 7.09719 8.50185 7.13594 8.52769C7.17595 8.55436 7.22031 8.56529 7.26172 8.56529V8.16529ZM7.46172 15.1916V8.36529H7.06172V15.1916H7.46172ZM1.43873 12.0542L7.16157 15.3648L7.36187 15.0185L1.63902 11.708L1.43873 12.0542ZM1.33888 5.36272V11.8811H1.73888V5.36272H1.33888ZM8.02642 15.166V8.28829H7.62642V15.166H8.02642ZM13.4237 11.7078L7.72652 14.9927L7.92632 15.3392L13.6235 12.0544L13.4237 11.7078ZM13.3236 5.26005V11.8811H13.7236V5.26005H13.3236ZM7.92029 8.46489L13.6175 5.43666L13.4297 5.08345L7.73255 8.11168L7.92029 8.46489Z" fill="white" mask="url(#path-1-outside-1_330_1423)"/>
</svg>
