<svg width="15" height="16" viewBox="0 0 15 16" fill="none" xmlns="http://www.w3.org/2000/svg">
<mask id="path-1-outside-1_59_169" maskUnits="userSpaceOnUse" x="0" y="-0.5" width="15" height="17" fill="black">
<rect fill="white" y="-0.5" width="15" height="17"/>
<path fill-rule="evenodd" clip-rule="evenodd" d="M14.0625 4.33661V4.38794L14.0368 11.6249C14.0368 11.7019 13.9855 11.8045 13.9085 11.8559L7.64671 15.4743C7.62105 15.5 7.56972 15.5 7.51839 15.5C7.49273 15.5 7.44141 15.5 7.39008 15.4743L1.12831 11.8559C1.05133 11.8045 1 11.7276 1 11.6249V4.38794C1 4.31095 1.05133 4.2083 1.12831 4.15697L7.39008 0.538494C7.49273 0.487169 7.59538 0.487169 7.67237 0.538494L13.9341 4.15697C13.947 4.15697 13.9534 4.16339 13.9598 4.16981C13.9662 4.17622 13.9726 4.18264 13.9855 4.18264L14.0111 4.2083C14.0111 4.22113 14.0175 4.22755 14.024 4.23396C14.0304 4.24038 14.0368 4.24679 14.0368 4.25963V4.28529C14.0625 4.31095 14.0625 4.31095 14.0625 4.33661ZM13.2155 4.38795L7.51833 1.10309L1.74416 4.43928L7.49267 7.41618L13.2155 4.38795ZM1.53888 4.86272L7.23606 7.83962C7.23606 7.83962 7.23606 7.86529 7.26172 7.86529V14.6916L1.53888 11.3811V4.86272ZM7.82642 7.78829V14.666L13.5236 11.3811V4.76005L7.82642 7.78829Z"/>
</mask>
<path fill-rule="evenodd" clip-rule="evenodd" d="M14.0625 4.33661V4.38794L14.0368 11.6249C14.0368 11.7019 13.9855 11.8045 13.9085 11.8559L7.64671 15.4743C7.62105 15.5 7.56972 15.5 7.51839 15.5C7.49273 15.5 7.44141 15.5 7.39008 15.4743L1.12831 11.8559C1.05133 11.8045 1 11.7276 1 11.6249V4.38794C1 4.31095 1.05133 4.2083 1.12831 4.15697L7.39008 0.538494C7.49273 0.487169 7.59538 0.487169 7.67237 0.538494L13.9341 4.15697C13.947 4.15697 13.9534 4.16339 13.9598 4.16981C13.9662 4.17622 13.9726 4.18264 13.9855 4.18264L14.0111 4.2083C14.0111 4.22113 14.0175 4.22755 14.024 4.23396C14.0304 4.24038 14.0368 4.24679 14.0368 4.25963V4.28529C14.0625 4.31095 14.0625 4.31095 14.0625 4.33661ZM13.2155 4.38795L7.51833 1.10309L1.74416 4.43928L7.49267 7.41618L13.2155 4.38795ZM1.53888 4.86272L7.23606 7.83962C7.23606 7.83962 7.23606 7.86529 7.26172 7.86529V14.6916L1.53888 11.3811V4.86272ZM7.82642 7.78829V14.666L13.5236 11.3811V4.76005L7.82642 7.78829Z" fill="white"/>
<path d="M14.0625 4.38794L14.2625 4.38865V4.38794H14.0625ZM14.0368 11.6249L13.8368 11.6242V11.6249H14.0368ZM13.9085 11.8559L14.0087 12.0294L14.0194 12.0223L13.9085 11.8559ZM7.64671 15.4743L7.54664 15.3012L7.52388 15.3143L7.50529 15.3329L7.64671 15.4743ZM7.39008 15.4743L7.28983 15.6478L7.30064 15.6532L7.39008 15.4743ZM1.12831 11.8559L1.01715 12.0226L1.02825 12.029L1.12831 11.8559ZM1.12831 4.15697L1.02804 3.98345L1.01737 3.99056L1.12831 4.15697ZM7.39008 0.538494L7.30047 0.359283L7.29001 0.365328L7.39008 0.538494ZM7.67237 0.538494L7.56121 0.705246L7.57231 0.711661L7.67237 0.538494ZM13.9341 4.15697L13.8341 4.33014L13.8805 4.35697H13.9341V4.15697ZM13.9855 4.18264L14.1269 4.04121L14.0683 3.98264H13.9855V4.18264ZM14.0111 4.2083H14.2111V4.12546L14.1525 4.06688L14.0111 4.2083ZM14.024 4.23396L13.8825 4.37538L13.8825 4.37539L14.024 4.23396ZM14.0368 4.28529H13.8368V4.36813L13.8954 4.42671L14.0368 4.28529ZM7.51833 1.10309L7.61823 0.929826L7.51823 0.872167L7.41828 0.929916L7.51833 1.10309ZM13.2155 4.38795L13.3091 4.56473L13.6289 4.39546L13.3154 4.21469L13.2155 4.38795ZM1.74416 4.43928L1.64411 4.2661L1.32777 4.44887L1.65219 4.61688L1.74416 4.43928ZM7.49267 7.41618L7.4007 7.59378L7.49367 7.64193L7.58621 7.59296L7.49267 7.41618ZM7.23606 7.83962L7.43606 7.83963L7.43606 7.71847L7.32868 7.66236L7.23606 7.83962ZM1.53888 4.86272L1.6315 4.68546L1.33888 4.53256V4.86272H1.53888ZM7.26172 7.86529H7.46172V7.66529H7.26172V7.86529ZM7.26172 14.6916L7.16157 14.8648L7.46172 15.0384V14.6916H7.26172ZM1.53888 11.3811H1.33888V11.4965L1.43873 11.5542L1.53888 11.3811ZM7.82642 14.666H7.62642V15.0121L7.92632 14.8392L7.82642 14.666ZM7.82642 7.78829L7.73255 7.61168L7.62642 7.66809V7.78829H7.82642ZM13.5236 11.3811L13.6235 11.5544L13.7236 11.4966V11.3811H13.5236ZM13.5236 4.76005H13.7236V4.42725L13.4297 4.58345L13.5236 4.76005ZM14.2625 4.38794V4.33661H13.8625V4.38794H14.2625ZM14.2368 11.6256L14.2625 4.38865L13.8625 4.38723L13.8368 11.6242L14.2368 11.6256ZM14.0194 12.0223C14.0904 11.9749 14.1429 11.9092 14.1776 11.8448C14.2118 11.7814 14.2368 11.704 14.2368 11.6249H13.8368C13.8368 11.6226 13.8371 11.625 13.8351 11.6318C13.8333 11.6383 13.8301 11.6465 13.8254 11.6552C13.8152 11.6742 13.8035 11.6855 13.7975 11.6895L14.0194 12.0223ZM7.74678 15.6475L14.0085 12.029L13.8084 11.6827L7.54664 15.3012L7.74678 15.6475ZM7.51839 15.7C7.54036 15.7 7.58119 15.7004 7.62046 15.6948C7.65713 15.6896 7.72916 15.6747 7.78813 15.6158L7.50529 15.3329C7.52274 15.3155 7.54014 15.3069 7.55017 15.3029C7.55974 15.2992 7.56541 15.2986 7.56389 15.2988C7.56264 15.299 7.55858 15.2994 7.55004 15.2997C7.5414 15.3 7.53184 15.3 7.51839 15.3V15.7ZM7.30064 15.6532C7.39755 15.7017 7.49098 15.7 7.51839 15.7V15.3C7.50626 15.3 7.49936 15.2998 7.49215 15.2988C7.48523 15.2978 7.48138 15.2964 7.47952 15.2955L7.30064 15.6532ZM1.02825 12.029L7.29001 15.6475L7.49015 15.3012L1.22838 11.6827L1.02825 12.029ZM0.8 11.6249C0.8 11.8051 0.89429 11.9402 1.01738 12.0223L1.23925 11.6895C1.222 11.678 1.21286 11.6671 1.20804 11.6589C1.20375 11.6515 1.2 11.6415 1.2 11.6249H0.8ZM0.8 4.38794V11.6249H1.2V4.38794H0.8ZM1.01737 3.99056C0.946347 4.03792 0.893859 4.10363 0.859192 4.16801C0.82502 4.23148 0.8 4.30887 0.8 4.38794H1.2C1.2 4.39024 1.19973 4.38788 1.20166 4.38105C1.20351 4.37455 1.20668 4.36638 1.21138 4.35765C1.22162 4.33863 1.23329 4.32736 1.23926 4.32338L1.01737 3.99056ZM7.29001 0.365328L1.02825 3.98381L1.22838 4.33014L7.49015 0.711661L7.29001 0.365328ZM7.78331 0.372084C7.63152 0.27089 7.44943 0.285213 7.30064 0.359609L7.47952 0.71738C7.53603 0.689124 7.55925 0.703447 7.56143 0.704905L7.78331 0.372084ZM14.0342 3.98381L7.77244 0.365328L7.57231 0.711661L13.8341 4.33014L14.0342 3.98381ZM14.1012 4.02839C14.0927 4.01986 14.0349 3.95697 13.9341 3.95697V4.35697C13.9035 4.35697 13.8729 4.34833 13.8465 4.33248C13.826 4.3202 13.8125 4.30539 13.8184 4.31122L14.1012 4.02839ZM13.9855 3.98264C14.0161 3.98264 14.0467 3.99129 14.0731 4.00713C14.0936 4.01941 14.1071 4.03422 14.1012 4.02839L13.8184 4.31122C13.8269 4.31974 13.8847 4.38264 13.9855 4.38264V3.98264ZM14.1525 4.06688L14.1269 4.04121L13.844 4.32406L13.8697 4.34972L14.1525 4.06688ZM14.1654 4.09255C14.1595 4.08671 14.1744 4.10017 14.1866 4.12064C14.2025 4.14705 14.2111 4.1777 14.2111 4.2083H13.8111C13.8111 4.30906 13.874 4.36686 13.8825 4.37538L14.1654 4.09255ZM14.2368 4.25963C14.2368 4.15886 14.1739 4.10106 14.1654 4.09254L13.8825 4.37539C13.8884 4.38122 13.8736 4.36776 13.8613 4.34729C13.8454 4.32088 13.8368 4.29023 13.8368 4.25963H14.2368ZM14.2368 4.28529V4.25963H13.8368V4.28529H14.2368ZM14.2625 4.33661C14.2625 4.3339 14.2627 4.31765 14.2611 4.30147C14.2589 4.27981 14.2532 4.25168 14.2381 4.2215C14.2247 4.19475 14.2086 4.17599 14.2003 4.16673C14.1923 4.15789 14.1831 4.14877 14.1782 4.14387L13.8954 4.42671C13.9033 4.43464 13.9037 4.43514 13.903 4.43432C13.9019 4.43308 13.8905 4.42074 13.8804 4.4004C13.8685 4.37664 13.8644 4.35493 13.863 4.34128C13.8622 4.33312 13.8625 4.3265 13.8625 4.33661H14.2625ZM7.41843 1.27635L13.1156 4.56121L13.3154 4.21469L7.61823 0.929826L7.41843 1.27635ZM1.84422 4.61245L7.61839 1.27626L7.41828 0.929916L1.64411 4.2661L1.84422 4.61245ZM7.58464 7.23858L1.83613 4.26168L1.65219 4.61688L7.4007 7.59378L7.58464 7.23858ZM13.122 4.21117L7.39913 7.2394L7.58621 7.59296L13.3091 4.56473L13.122 4.21117ZM7.32868 7.66236L1.6315 4.68546L1.44625 5.03998L7.14343 8.01688L7.32868 7.66236ZM7.26172 7.66529C7.2903 7.66529 7.32503 7.67301 7.35782 7.69487C7.38936 7.71589 7.40789 7.7425 7.41815 7.76301C7.42802 7.78275 7.43196 7.80006 7.43374 7.81076C7.43471 7.81658 7.43527 7.82187 7.4356 7.82648C7.43577 7.82882 7.43588 7.83108 7.43595 7.83325C7.43599 7.83434 7.43601 7.83542 7.43603 7.83648C7.43604 7.83701 7.43605 7.83753 7.43605 7.83806C7.43605 7.83832 7.43605 7.83858 7.43606 7.83884C7.43606 7.83897 7.43606 7.83911 7.43606 7.83924C7.43606 7.8393 7.43606 7.8394 7.43606 7.83943C7.43606 7.83953 7.43606 7.83963 7.23606 7.83962C7.03606 7.83962 7.03606 7.83972 7.03606 7.83982C7.03606 7.83985 7.03606 7.83995 7.03606 7.84001C7.03606 7.84015 7.03606 7.84028 7.03606 7.84041C7.03606 7.84068 7.03606 7.84095 7.03606 7.84123C7.03607 7.84178 7.03607 7.84234 7.03608 7.84292C7.0361 7.84408 7.03613 7.84529 7.03617 7.84657C7.03626 7.84912 7.0364 7.85193 7.03661 7.85497C7.03704 7.86099 7.03781 7.86828 7.03918 7.87651C7.04176 7.89201 7.0473 7.91574 7.06038 7.9419C7.07384 7.96883 7.09719 8.00185 7.13594 8.02769C7.17595 8.05436 7.22031 8.06529 7.26172 8.06529V7.66529ZM7.46172 14.6916V7.86529H7.06172V14.6916H7.46172ZM1.43873 11.5542L7.16157 14.8648L7.36187 14.5185L1.63902 11.208L1.43873 11.5542ZM1.33888 4.86272V11.3811H1.73888V4.86272H1.33888ZM8.02642 14.666V7.78829H7.62642V14.666H8.02642ZM13.4237 11.2078L7.72652 14.4927L7.92632 14.8392L13.6235 11.5544L13.4237 11.2078ZM13.3236 4.76005V11.3811H13.7236V4.76005H13.3236ZM7.92029 7.96489L13.6175 4.93666L13.4297 4.58345L7.73255 7.61168L7.92029 7.96489Z" fill="white" mask="url(#path-1-outside-1_59_169)"/>
</svg>
