<svg width="18" height="18" viewBox="0 0 18 18" fill="none" xmlns="http://www.w3.org/2000/svg">
<rect width="18" height="18" fill="white" style="mix-blend-mode:multiply"/>
<path d="M12.9375 13.5C13.2482 13.5 13.5 13.2482 13.5 12.9375C13.5 12.6268 13.2482 12.375 12.9375 12.375C12.6268 12.375 12.375 12.6268 12.375 12.9375C12.375 13.2482 12.6268 13.5 12.9375 13.5Z" fill="white"/>
<path d="M11.25 12.375H4.5V13.5H11.25V12.375Z" fill="white"/>
<path d="M12.9375 5.625C13.2482 5.625 13.5 5.37316 13.5 5.0625C13.5 4.75184 13.2482 4.5 12.9375 4.5C12.6268 4.5 12.375 4.75184 12.375 5.0625C12.375 5.37316 12.6268 5.625 12.9375 5.625Z" fill="white"/>
<path d="M11.25 4.5H4.5V5.625H11.25V4.5Z" fill="white"/>
<path d="M14.625 7.875C14.9234 7.875 15.2095 7.75647 15.4205 7.5455C15.6315 7.33452 15.75 7.04837 15.75 6.75V3.375C15.75 3.07663 15.6315 2.79048 15.4205 2.5795C15.2095 2.36853 14.9234 2.25 14.625 2.25H3.375C3.07663 2.25 2.79048 2.36853 2.5795 2.5795C2.36853 2.79048 2.25 3.07663 2.25 3.375V6.75C2.25 7.04837 2.36853 7.33452 2.5795 7.5455C2.79048 7.75647 3.07663 7.875 3.375 7.875H4.5V10.125H3.375C3.07663 10.125 2.79048 10.2435 2.5795 10.4545C2.36853 10.6655 2.25 10.9516 2.25 11.25V14.625C2.25 14.9234 2.36853 15.2095 2.5795 15.4205C2.79048 15.6315 3.07663 15.75 3.375 15.75H14.625C14.9234 15.75 15.2095 15.6315 15.4205 15.4205C15.6315 15.2095 15.75 14.9234 15.75 14.625V11.25C15.75 10.9516 15.6315 10.6655 15.4205 10.4545C15.2095 10.2435 14.9234 10.125 14.625 10.125H13.5V7.875H14.625ZM3.375 3.375H14.625V6.75H3.375V3.375ZM14.625 14.625H3.375V11.25H14.625V14.625ZM12.375 10.125H5.625V7.875H12.375V10.125Z" fill="white"/>
</svg>
