<svg width="16" height="16" viewBox="0 0 16 16" fill="none" xmlns="http://www.w3.org/2000/svg">
<rect width="16" height="16" fill="white" style="mix-blend-mode:multiply"/>
<path d="M11.5 4.50246H14.5C14.7652 4.50246 15.0196 4.3971 15.2071 4.20956C15.3946 4.02203 15.5 3.76767 15.5 3.50246V1.50246C15.5 1.23724 15.3946 0.982886 15.2071 0.79535C15.0196 0.607814 14.7652 0.502457 14.5 0.502457H11.5C11.2348 0.502457 10.9804 0.607814 10.7929 0.79535C10.6054 0.982886 10.5 1.23724 10.5 1.50246V2.00246H5.5V1.50246C5.5 1.23724 5.39464 0.982886 5.20711 0.79535C5.01957 0.607814 4.76522 0.502457 4.5 0.502457H1.5C1.23478 0.502457 0.98043 0.607814 0.792893 0.79535C0.605357 0.982886 0.5 1.23724 0.5 1.50246V3.50246C0.5 3.76767 0.605357 4.02203 0.792893 4.20956C0.98043 4.3971 1.23478 4.50246 1.5 4.50246H4.5C4.76522 4.50246 5.01957 4.3971 5.20711 4.20956C5.39464 4.02203 5.5 3.76767 5.5 3.50246V3.00246H7.5V13.0025C7.5003 13.2676 7.60576 13.5218 7.79323 13.7092C7.9807 13.8967 8.23488 14.0022 8.5 14.0025H10.5V14.5025C10.5 14.7677 10.6054 15.022 10.7929 15.2096C10.9804 15.3971 11.2348 15.5025 11.5 15.5025H14.5C14.7652 15.5025 15.0196 15.3971 15.2071 15.2096C15.3946 15.022 15.5 14.7677 15.5 14.5025V12.5025C15.5 12.2372 15.3946 11.9829 15.2071 11.7954C15.0196 11.6078 14.7652 11.5025 14.5 11.5025H11.5C11.2348 11.5025 10.9804 11.6078 10.7929 11.7954C10.6054 11.9829 10.5 12.2372 10.5 12.5025V13.0025H8.5V8.50246H10.5V9.00246C10.5 9.26767 10.6054 9.52203 10.7929 9.70956C10.9804 9.8971 11.2348 10.0025 11.5 10.0025H14.5C14.7652 10.0025 15.0196 9.8971 15.2071 9.70956C15.3946 9.52203 15.5 9.26767 15.5 9.00246V7.00246C15.5 6.73724 15.3946 6.48289 15.2071 6.29535C15.0196 6.10781 14.7652 6.00246 14.5 6.00246H11.5C11.2348 6.00246 10.9804 6.10781 10.7929 6.29535C10.6054 6.48289 10.5 6.73724 10.5 7.00246V7.50246H8.5V3.00246H10.5V3.50246C10.5 3.76767 10.6054 4.02203 10.7929 4.20956C10.9804 4.3971 11.2348 4.50246 11.5 4.50246ZM11.5 1.50246H14.5V3.50246H11.5V1.50246ZM4.5 3.50246H1.5V1.50246H4.5V3.50246ZM11.5 12.5025H14.5V14.5025H11.5V12.5025ZM11.5 7.00246H14.5V9.00246H11.5V7.00246Z" fill="white"/>
</svg>
