<svg width="16" height="16" viewBox="0 0 16 16" fill="none" xmlns="http://www.w3.org/2000/svg">
<rect width="16" height="16" fill="white" style="mix-blend-mode:multiply"/>
<path d="M14 10H13V11H14V14H2V11H7V10H2C1.73488 10.0003 1.4807 10.1058 1.29323 10.2932C1.10576 10.4807 1.0003 10.7349 1 11V14C1.0003 14.2651 1.10576 14.5193 1.29323 14.7068C1.4807 14.8942 1.73488 14.9997 2 15H14C14.2651 14.9997 14.5193 14.8942 14.7068 14.7068C14.8942 14.5193 14.9997 14.2651 15 14V11C14.9997 10.7349 14.8942 10.4807 14.7068 10.2932C14.5193 10.1058 14.2651 10.0003 14 10Z" fill="white"/>
<path d="M3.5 13C3.77614 13 4 12.7761 4 12.5C4 12.2239 3.77614 12 3.5 12C3.22386 12 3 12.2239 3 12.5C3 12.7761 3.22386 13 3.5 13Z" fill="white"/>
<path d="M15 4H11V7H8V11H12V8H15V4ZM11 10H9V8H11V10ZM14 7H12V5H14V7Z" fill="white"/>
<path d="M9 5H5V1H9V5ZM6 4H8V2H6V4Z" fill="white"/>
</svg>
